<svg width="37" height="40" viewBox="0 0 37 40" fill="none" xmlns="http://www.w3.org/2000/svg">
    <g clip-path="url(#clip0)">
        <path d="M15.5915 5.22656L17.4085 3.49219C18.1778 2.75781 19.4219 2.75781 20.183 3.49219L36.0938 18.6719C36.8631 19.4063 36.8631 20.5938 36.0938 21.3203L20.183 36.5078C19.4137 37.2422 18.1696 37.2422 17.4085 36.5078L15.5915 34.7734C14.814 34.0313 14.8304 32.8203 15.6243 32.0938L25.4866 23.125H1.96429C0.875744 23.125 0 22.2891 0 21.25V18.75C0 17.7109 0.875744 16.875 1.96429 16.875H25.4866L15.6243 7.90625C14.8222 7.17969 14.8058 5.96875 15.5915 5.22656Z" fill="white"/>
    </g>
    <defs>
        <clipPath id="clip0">
            <rect width="36.6667" height="40" fill="white"/>
        </clipPath>
    </defs>
</svg>
