<svg width="65" height="70" viewBox="0 0 65 70" fill="none" xmlns="http://www.w3.org/2000/svg">
    <g clip-path="url(#clip0)">
        <path d="M0 59.0625C0 62.6855 2.39511 65.625 5.34722 65.625H58.8194C61.7716 65.625 64.1667 62.6855 64.1667 59.0625V35H0V59.0625ZM21.3889 49.7656C21.3889 48.8633 21.9904 48.125 22.7257 48.125H37.8762C38.6114 48.125 39.213 48.8633 39.213 49.7656V55.2344C39.213 56.1367 38.6114 56.875 37.8762 56.875H22.7257C21.9904 56.875 21.3889 56.1367 21.3889 55.2344V49.7656ZM7.12963 49.7656C7.12963 48.8633 7.73119 48.125 8.46643 48.125H16.4873C17.2225 48.125 17.8241 48.8633 17.8241 49.7656V55.2344C17.8241 56.1367 17.2225 56.875 16.4873 56.875H8.46643C7.73119 56.875 7.12963 56.1367 7.12963 55.2344V49.7656ZM64.1667 10.9375V17.5H0V10.9375C0 7.31445 2.39511 4.375 5.34722 4.375H58.8194C61.7716 4.375 64.1667 7.31445 64.1667 10.9375Z" fill="black"/>
    </g>
    <defs>
        <clipPath id="clip0">
            <rect width="64.1667" height="70" fill="white"/>
        </clipPath>
    </defs>
</svg>
