<svg width="55" height="60" viewBox="0 0 55 60" fill="none" xmlns="http://www.w3.org/2000/svg">
    <g clip-path="url(#clip0)">
        <path d="M54.1406 30C54.1406 13.9453 42.2168 0.9375 27.5 0.9375C12.7832 0.9375 0.859375 13.9453 0.859375 30C0.859375 44.5055 10.6015 56.5289 23.3374 58.7109V38.4012H16.5698V30H23.3374V23.5969C23.3374 16.3137 27.312 12.2906 33.3996 12.2906C36.315 12.2906 39.3637 12.8578 39.3637 12.8578V20.0063H36.0035C32.6949 20.0063 31.6626 22.2469 31.6626 24.5449V30H39.0511L37.8694 38.4012H31.6626V58.7109C44.3985 56.5289 54.1406 44.5055 54.1406 30Z" fill="white"/>
    </g>
    <defs>
        <clipPath id="clip0">
            <rect width="55" height="60" fill="white"/>
        </clipPath>
    </defs>
</svg>
