<svg width="55" height="60" viewBox="0 0 55 60" fill="none" xmlns="http://www.w3.org/2000/svg">
    <g clip-path="url(#clip0)">
        <path d="M27.5127 16.5225C19.7047 16.5225 13.4067 22.5342 13.4067 29.9873C13.4067 37.4404 19.7047 43.4521 27.5127 43.4521C35.3207 43.4521 41.6187 37.4404 41.6187 29.9873C41.6187 22.5342 35.3207 16.5225 27.5127 16.5225ZM27.5127 38.7412C22.4669 38.7412 18.3419 34.8154 18.3419 29.9873C18.3419 25.1592 22.4547 21.2334 27.5127 21.2334C32.5707 21.2334 36.6834 25.1592 36.6834 29.9873C36.6834 34.8154 32.5585 38.7412 27.5127 38.7412ZM45.4859 15.9717C45.4859 17.7178 44.0127 19.1123 42.1957 19.1123C40.3665 19.1123 38.9055 17.7061 38.9055 15.9717C38.9055 14.2373 40.3788 12.8311 42.1957 12.8311C44.0127 12.8311 45.4859 14.2373 45.4859 15.9717ZM54.8285 19.1592C54.6198 14.9521 53.6131 11.2256 50.3843 8.15527C47.1678 5.08496 43.2638 4.12402 38.8564 3.91309C34.314 3.66699 20.6991 3.66699 16.1567 3.91309C11.7616 4.1123 7.85756 5.07324 4.62877 8.14355C1.39997 11.2139 0.405552 14.9404 0.18457 19.1475C-0.0732422 23.4834 -0.0732422 36.4795 0.18457 40.8154C0.393276 45.0225 1.39997 48.749 4.62877 51.8193C7.85756 54.8896 11.7493 55.8506 16.1567 56.0615C20.6991 56.3076 34.314 56.3076 38.8564 56.0615C43.2638 55.8623 47.1678 54.9014 50.3843 51.8193C53.6009 48.749 54.6076 45.0225 54.8285 40.8154C55.0864 36.4795 55.0864 23.4951 54.8285 19.1592ZM48.9602 45.4678C48.0026 47.7646 46.1489 49.5342 43.7303 50.46C40.1087 51.8311 31.5149 51.5146 27.5127 51.5146C23.5105 51.5146 14.9044 51.8193 11.2951 50.46C8.88881 49.5459 7.03502 47.7764 6.06515 45.4678C4.62877 42.0107 4.96024 33.8076 4.96024 29.9873C4.96024 26.167 4.64104 17.9521 6.06515 14.5068C7.02274 12.21 8.87653 10.4404 11.2951 9.51465C14.9167 8.14355 23.5105 8.45996 27.5127 8.45996C31.5149 8.45996 40.121 8.15527 43.7303 9.51465C46.1366 10.4287 47.9904 12.1982 48.9602 14.5068C50.3966 17.9639 50.0651 26.167 50.0651 29.9873C50.0651 33.8076 50.3966 42.0225 48.9602 45.4678Z" fill="white"/>
    </g>
    <defs>
        <clipPath id="clip0">
            <rect width="55" height="60" fill="white"/>
        </clipPath>
    </defs>
</svg>
