<svg width="150" height="83" viewBox="0 0 150 83" fill="none" xmlns="http://www.w3.org/2000/svg">
    <rect y="4.98047" width="150" height="73.04" fill="#FF6565"/>
    <rect x="3.5" y="8.20312" width="63.5556" height="66.04" fill="#FF6565" stroke="#EFEFEF" stroke-width="7"/>
    <g clip-path="url(#clip0)">
        <path d="M19.4137 49.2812C17.4369 49.2812 15.833 51.0239 15.833 53.1719C15.833 55.3198 17.4369 57.0625 19.4137 57.0625C21.3906 57.0625 22.9945 55.3198 22.9945 53.1719C22.9945 51.0239 21.3906 49.2812 19.4137 49.2812ZM50.4467 49.2812C48.4699 49.2812 46.866 51.0239 46.866 53.1719C46.866 55.3198 48.4699 57.0625 50.4467 57.0625C52.4236 57.0625 54.0275 55.3198 54.0275 53.1719C54.0275 51.0239 52.4236 49.2812 50.4467 49.2812ZM41.5695 50.181C41.9127 49.0057 41.6889 47.6845 40.8384 46.7523C39.9806 45.8202 38.7646 45.5852 37.6829 45.9499C37.1607 44.8557 36.1387 44.0856 34.9302 44.0856C33.7217 44.0856 32.6997 44.8557 32.1775 45.9499C31.0959 45.5771 29.8799 45.8202 29.022 46.7523C28.1641 47.6845 27.9478 49.0057 28.2835 50.181C27.2764 50.7483 26.5677 51.8588 26.5677 53.1719C26.5677 54.485 27.2764 55.5954 28.2835 56.1628C27.9403 57.3381 28.1641 58.6593 29.022 59.5914C29.6337 60.2561 30.4319 60.5884 31.2376 60.5884C31.5584 60.5884 31.8717 60.4992 32.1775 60.3857C32.6997 61.48 33.7217 62.25 34.9302 62.25C36.1387 62.25 37.1607 61.48 37.6829 60.3857C37.9888 60.4911 38.3021 60.5884 38.6229 60.5884C39.4285 60.5884 40.2267 60.2561 40.8384 59.5914C41.6963 58.6593 41.9127 57.3381 41.5695 56.1628C42.5766 55.5954 43.2853 54.485 43.2853 53.1719C43.2853 51.8588 42.5766 50.7483 41.5695 50.181ZM54.0275 38.9062C54.0275 34.6104 50.8197 31.125 46.866 31.125C46.8212 31.125 46.7839 31.1412 46.7466 31.1412C46.8287 30.7197 46.866 30.282 46.866 29.8281C46.866 26.2455 44.1954 23.3438 40.8981 23.3438C39.063 23.3438 37.4442 24.2597 36.3476 25.6781C34.9601 22.7602 32.1925 20.75 28.9623 20.75C24.3447 20.75 20.6073 24.8108 20.6073 29.8281C20.6073 30.4198 20.667 30.9872 20.764 31.5465C17.9068 32.5678 15.833 35.4614 15.833 38.9062C15.833 43.2021 19.0407 46.6875 22.9945 46.6875H26.232C26.5006 46.0391 26.8587 45.4393 27.3361 44.9205C28.3432 43.8263 29.686 43.2103 31.1257 43.194C32.1328 42.1241 33.4905 41.5 34.9302 41.5C36.37 41.5 37.7277 42.1241 38.7348 43.194C40.1745 43.2103 41.5173 43.8263 42.5244 44.9205C43.0018 45.4393 43.3673 46.0391 43.6284 46.6875H46.866C50.8197 46.6875 54.0275 43.2021 54.0275 38.9062Z" fill="white"/>
    </g>
    <path d="M97.4457 56.48C94.9177 56.48 92.9817 55.76 91.6377 54.32C90.3257 52.88 89.6697 50.848 89.6697 48.224V30.176C89.6697 27.552 90.3257 25.52 91.6377 24.08C92.9817 22.64 94.9177 21.92 97.4457 21.92C99.9737 21.92 101.894 22.64 103.206 24.08C104.55 25.52 105.222 27.552 105.222 30.176V33.728H100.23V29.84C100.23 27.76 99.3497 26.72 97.5897 26.72C95.8297 26.72 94.9497 27.76 94.9497 29.84V48.608C94.9497 50.656 95.8297 51.68 97.5897 51.68C99.3497 51.68 100.23 50.656 100.23 48.608V43.472H105.222V48.224C105.222 50.848 104.55 52.88 103.206 54.32C101.894 55.76 99.9737 56.48 97.4457 56.48ZM108.381 22.4H115.917L119.277 46.448H119.373L122.733 22.4H130.269V56H125.277V30.56H125.181L121.341 56H116.925L113.085 30.56H112.989V56H108.381V22.4Z" fill="white"/>
    <defs>
        <clipPath id="clip0">
            <rect width="38.1944" height="41.5" fill="white" transform="translate(15.833 20.75)"/>
        </clipPath>
    </defs>
</svg>
