<svg width="65" height="70" viewBox="0 0 65 70" fill="none" xmlns="http://www.w3.org/2000/svg">
    <g clip-path="url(#clip0)">
        <path d="M17.8241 61.25C14.9722 61.25 12.1204 58.1875 10.6944 56.875C3.56481 50.75 1.42593 48.5625 0 47.25V65.625C0 68.0408 1.59637 70 3.56481 70H32.0833C34.0518 70 35.6481 68.0408 35.6481 65.625V47.25C34.2222 48.5625 32.0833 50.75 24.9537 56.875C23.5278 58.1875 20.6759 61.25 17.8241 61.25ZM32.0833 35H3.56481C1.59637 35 0 36.9592 0 39.375V41.5625C2.85185 44.1875 2.49537 44.1875 12.8333 53.375C13.9028 54.25 16.0417 56.875 17.8241 56.875C19.6065 56.875 21.7454 54.25 22.8148 53.8125C33.1528 44.625 32.7963 44.625 35.6481 42V39.375C35.6481 36.9592 34.0518 35 32.0833 35ZM60.6018 21.875H24.9537C22.9853 21.875 21.3889 23.8342 21.3889 26.25V30.625H32.0833C35.7829 30.625 38.8331 34.1004 39.1807 38.5301L39.213 38.5V56.875H60.6018C62.5703 56.875 64.1667 54.9158 64.1667 52.5V26.25C64.1667 23.8342 62.5703 21.875 60.6018 21.875ZM57.037 39.375H49.9074V30.625H57.037V39.375ZM17.8241 26.25C17.8241 21.4252 21.0224 17.5 24.9537 17.5H49.9074V4.375C49.9074 1.95918 48.311 0 46.3426 0H10.6944C8.726 0 7.12963 1.95918 7.12963 4.375V30.625H17.8241V26.25Z" fill="black"/>
    </g>
    <defs>
        <clipPath id="clip0">
            <rect width="64.1667" height="70" fill="white"/>
        </clipPath>
    </defs>
</svg>
