<svg width="65" height="70" viewBox="0 0 65 70" fill="none" xmlns="http://www.w3.org/2000/svg">
    <g clip-path="url(#clip0)">
        <path d="M62.3357 49.4665L48.2992 42.904C47.6996 42.6253 47.0332 42.5665 46.4003 42.7367C45.7674 42.9068 45.2023 43.2966 44.7901 43.8474L38.5739 52.1325C28.8183 47.1147 20.9672 38.5499 16.3675 27.9074L23.9622 21.1261C24.4682 20.6772 24.8262 20.0608 24.9823 19.37C25.1383 18.6793 25.0838 17.9519 24.827 17.298L18.8114 1.98548C18.5295 1.28057 18.031 0.705033 17.4019 0.358114C16.7727 0.0111945 16.0523 -0.0853639 15.3649 0.0850884L2.33105 3.36634C1.66829 3.5333 1.07698 3.94039 0.653617 4.52118C0.230255 5.10197 -0.000152673 5.82215 7.58997e-08 6.56419C7.58997e-08 41.6325 26.0552 70.0017 58.151 70.0017C58.8315 70.0022 59.4919 69.751 60.0246 69.2891C60.5572 68.8272 60.9306 68.182 61.0837 67.4587L64.0915 53.24C64.2467 52.4864 64.1563 51.6974 63.8359 51.0087C63.5154 50.3199 62.9849 49.7746 62.3357 49.4665Z" fill="black"/>
    </g>
    <defs>
        <clipPath id="clip0">
            <rect width="64.1667" height="70" fill="white"/>
        </clipPath>
    </defs>
</svg>
