<svg width="47" height="50" viewBox="0 0 47 50" fill="none" xmlns="http://www.w3.org/2000/svg">
    <g clip-path="url(#clip0)">
        <path d="M43.2739 20.3125H28.5417V6.25C28.5417 4.52441 27.0757 3.125 25.2679 3.125H21.9941C20.1864 3.125 18.7203 4.52441 18.7203 6.25V20.3125H3.98816C2.18041 20.3125 0.714355 21.7119 0.714355 23.4375V26.5625C0.714355 28.2881 2.18041 29.6875 3.98816 29.6875H18.7203V43.75C18.7203 45.4756 20.1864 46.875 21.9941 46.875H25.2679C27.0757 46.875 28.5417 45.4756 28.5417 43.75V29.6875H43.2739C45.0816 29.6875 46.5477 28.2881 46.5477 26.5625V23.4375C46.5477 21.7119 45.0816 20.3125 43.2739 20.3125Z" fill="#FA7777"/>
    </g>
    <defs>
        <clipPath id="clip0">
            <rect width="45.8333" height="50" fill="white" transform="translate(0.714355)"/>
        </clipPath>
    </defs>
</svg>
