<svg width="150" height="24" viewBox="0 0 150 24" fill="none" xmlns="http://www.w3.org/2000/svg">
    <g clip-path="url(#clip0)">
        <path d="M9.90405 0.833993L7.40996 7.04024L1.82975 8.03868C0.829055 8.21681 0.428013 9.73087 1.15371 10.5981L5.19086 15.4262L4.236 22.2465C4.06412 23.4793 5.12211 24.4027 6.00822 23.8262L11.0002 20.6059L15.9923 23.8262C16.8784 24.3981 17.9363 23.4793 17.7645 22.2465L16.8096 15.4262L20.8468 10.5981C21.5725 9.73087 21.1714 8.21681 20.1707 8.03868L14.5905 7.04024L12.0964 0.833993C11.6495 -0.272257 10.3547 -0.28632 9.90405 0.833993Z" fill="#FFC700"/>
    </g>
    <g clip-path="url(#clip1)">
        <path d="M41.9041 0.833993L39.41 7.04024L33.8297 8.03868C32.8291 8.21681 32.428 9.73087 33.1537 10.5981L37.1909 15.4262L36.236 22.2465C36.0641 23.4793 37.1221 24.4027 38.0082 23.8262L43.0002 20.6059L47.9923 23.8262C48.8784 24.3981 49.9363 23.4793 49.7645 22.2465L48.8096 15.4262L52.8468 10.5981C53.5725 9.73087 53.1714 8.21681 52.1707 8.03868L46.5905 7.04024L44.0964 0.833993C43.6495 -0.272257 42.3547 -0.28632 41.9041 0.833993Z" fill="#FFC700"/>
    </g>
    <g clip-path="url(#clip2)">
        <path d="M73.9041 0.833993L71.41 7.04024L65.8297 8.03868C64.8291 8.21681 64.428 9.73087 65.1537 10.5981L69.1909 15.4262L68.236 22.2465C68.0641 23.4793 69.1221 24.4027 70.0082 23.8262L75.0002 20.6059L79.9923 23.8262C80.8784 24.3981 81.9363 23.4793 81.7645 22.2465L80.8096 15.4262L84.8468 10.5981C85.5725 9.73087 85.1714 8.21681 84.1707 8.03868L78.5905 7.04024L76.0964 0.833993C75.6495 -0.272257 74.3547 -0.28632 73.9041 0.833993Z" fill="#FFC700"/>
    </g>
    <g clip-path="url(#clip3)">
        <path d="M105.904 0.833993L103.41 7.04024L97.8297 8.03868C96.8291 8.21681 96.428 9.73087 97.1537 10.5981L101.191 15.4262L100.236 22.2465C100.064 23.4793 101.122 24.4027 102.008 23.8262L107 20.6059L111.992 23.8262C112.878 24.3981 113.936 23.4793 113.764 22.2465L112.81 15.4262L116.847 10.5981C117.572 9.73087 117.171 8.21681 116.171 8.03868L110.591 7.04024L108.096 0.833993C107.65 -0.272257 106.355 -0.28632 105.904 0.833993Z" fill="#FFC700"/>
    </g>
    <g clip-path="url(#clip4)">
        <path d="M137.904 0.833993L135.41 7.04024L129.83 8.03868C128.829 8.21681 128.428 9.73087 129.154 10.5981L133.191 15.4262L132.236 22.2465C132.064 23.4793 133.122 24.4027 134.008 23.8262L139 20.6059L143.992 23.8262C144.878 24.3981 145.936 23.4793 145.764 22.2465L144.81 15.4262L148.847 10.5981C149.572 9.73087 149.171 8.21681 148.171 8.03868L142.591 7.04024L140.096 0.833993C139.65 -0.272257 138.355 -0.28632 137.904 0.833993Z" fill="#FFC700"/>
    </g>
    <defs>
        <clipPath id="clip0">
            <rect width="22" height="24" fill="white"/>
        </clipPath>
        <clipPath id="clip1">
            <rect width="22" height="24" fill="white" transform="translate(32)"/>
        </clipPath>
        <clipPath id="clip2">
            <rect width="22" height="24" fill="white" transform="translate(64)"/>
        </clipPath>
        <clipPath id="clip3">
            <rect width="22" height="24" fill="white" transform="translate(96)"/>
        </clipPath>
        <clipPath id="clip4">
            <rect width="22" height="24" fill="white" transform="translate(128)"/>
        </clipPath>
    </defs>
</svg>
