<svg width="37" height="40" viewBox="0 0 37 40" fill="none" xmlns="http://www.w3.org/2000/svg">
    <g clip-path="url(#clip0)">
        <path d="M33.6188 23.5405L36.628 7.29055C36.8453 6.11727 36.1186 5 35.1383 5H10.1348L9.55129 1.49922C9.40589 0.626641 8.78027 0 8.05451 0H1.52778C0.683999 0 0 0.839453 0 1.875V3.125C0 4.16055 0.683999 5 1.52778 5H5.97635L10.4482 31.8309C9.37833 32.5859 8.65741 34.0017 8.65741 35.625C8.65741 38.0412 10.2534 40 12.2222 40C14.191 40 15.787 38.0412 15.787 35.625C15.787 34.4005 15.3766 33.2941 14.7161 32.5H28.0617C27.4011 33.2941 26.9907 34.4005 26.9907 35.625C26.9907 38.0412 28.5868 40 30.5556 40C32.5244 40 34.1204 38.0412 34.1204 35.625C34.1204 33.8928 33.3 32.3959 32.1101 31.6871L32.4613 29.7905C32.6786 28.6173 31.9519 27.5 30.9716 27.5H13.8848L13.4681 25H32.129C32.8423 25 33.4607 24.3942 33.6188 23.5405Z" fill="#FF6565"/>
    </g>
    <defs>
        <clipPath id="clip0">
            <rect width="36.6667" height="40" fill="white"/>
        </clipPath>
    </defs>
</svg>
