<svg width="55" height="60" viewBox="0 0 55 60" fill="none" xmlns="http://www.w3.org/2000/svg">
    <g clip-path="url(#clip0)">
        <path d="M3.92857 54.375C3.92857 55.8669 4.54942 57.2976 5.65455 58.3525C6.75967 59.4074 8.25855 60 9.82143 60H45.1786C46.7415 60 48.2403 59.4074 49.3455 58.3525C50.4506 57.2976 51.0714 55.8669 51.0714 54.375V15H3.92857V54.375ZM37.3214 24.375C37.3214 23.8777 37.5284 23.4008 37.8968 23.0492C38.2651 22.6976 38.7648 22.5 39.2857 22.5C39.8067 22.5 40.3063 22.6976 40.6747 23.0492C41.0431 23.4008 41.25 23.8777 41.25 24.375V50.625C41.25 51.1223 41.0431 51.5992 40.6747 51.9508C40.3063 52.3025 39.8067 52.5 39.2857 52.5C38.7648 52.5 38.2651 52.3025 37.8968 51.9508C37.5284 51.5992 37.3214 51.1223 37.3214 50.625V24.375ZM25.5357 24.375C25.5357 23.8777 25.7427 23.4008 26.111 23.0492C26.4794 22.6976 26.979 22.5 27.5 22.5C28.021 22.5 28.5206 22.6976 28.889 23.0492C29.2573 23.4008 29.4643 23.8777 29.4643 24.375V50.625C29.4643 51.1223 29.2573 51.5992 28.889 51.9508C28.5206 52.3025 28.021 52.5 27.5 52.5C26.979 52.5 26.4794 52.3025 26.111 51.9508C25.7427 51.5992 25.5357 51.1223 25.5357 50.625V24.375ZM13.75 24.375C13.75 23.8777 13.957 23.4008 14.3253 23.0492C14.6937 22.6976 15.1933 22.5 15.7143 22.5C16.2352 22.5 16.7349 22.6976 17.1032 23.0492C17.4716 23.4008 17.6786 23.8777 17.6786 24.375V50.625C17.6786 51.1223 17.4716 51.5992 17.1032 51.9508C16.7349 52.3025 16.2352 52.5 15.7143 52.5C15.1933 52.5 14.6937 52.3025 14.3253 51.9508C13.957 51.5992 13.75 51.1223 13.75 50.625V24.375ZM53.0357 3.75002H38.3036L37.1496 1.55861C36.9051 1.09012 36.5285 0.696024 36.0622 0.420675C35.5959 0.145326 35.0584 -0.00035484 34.51 2.05462e-05H20.4777C19.9306 -0.00198694 19.394 0.143151 18.9293 0.418806C18.4647 0.694461 18.0908 1.08948 17.8504 1.55861L16.6964 3.75002H1.96429C1.44332 3.75002 0.943701 3.94756 0.575326 4.2992C0.206951 4.65083 0 5.12774 0 5.62502L0 9.37502C0 9.8723 0.206951 10.3492 0.575326 10.7008C0.943701 11.0525 1.44332 11.25 1.96429 11.25H53.0357C53.5567 11.25 54.0563 11.0525 54.4247 10.7008C54.7931 10.3492 55 9.8723 55 9.37502V5.62502C55 5.12774 54.7931 4.65083 54.4247 4.2992C54.0563 3.94756 53.5567 3.75002 53.0357 3.75002Z" fill="#FA7777"/>
    </g>
    <defs>
        <clipPath id="clip0">
            <rect width="55" height="60" fill="white"/>
        </clipPath>
    </defs>
</svg>
