<svg width="65" height="70" viewBox="0 0 65 70" fill="none" xmlns="http://www.w3.org/2000/svg">
    <g clip-path="url(#clip0)">
        <path d="M32.0833 39.375C42.0467 39.375 50.1302 30.5566 50.1302 19.6875C50.1302 8.81836 42.0467 0 32.0833 0C22.12 0 14.0365 8.81836 14.0365 19.6875C14.0365 30.5566 22.12 39.375 32.0833 39.375ZM48.125 43.75H41.2196C38.4373 45.1445 35.3418 45.9375 32.0833 45.9375C28.8249 45.9375 25.7419 45.1445 22.9471 43.75H16.0417C7.18115 43.75 0 51.584 0 61.25V63.4375C0 67.0605 2.6945 70 6.01562 70H58.151C61.4722 70 64.1667 67.0605 64.1667 63.4375V61.25C64.1667 51.584 56.9855 43.75 48.125 43.75Z" fill="black"/>
    </g>
    <defs>
        <clipPath id="clip0">
            <rect width="64.1667" height="70" fill="white"/>
        </clipPath>
    </defs>
</svg>
